<?xml version="1.0" encoding="UTF-8"?>
<svg id="Camada_1" data-name="Camada 1" xmlns="http://www.w3.org/2000/svg" viewBox="0 0 859 660">
  <defs>
    <style>
      .cls-1 {
        stroke: #f5fbfc;
        stroke-width: .49px;
      }

      .cls-1, .cls-2, .cls-3 {
        fill: none;
        stroke-miterlimit: 10;
      }

      .cls-4, .cls-5, .cls-6, .cls-7, .cls-8, .cls-9, .cls-10, .cls-11, .cls-12, .cls-13, .cls-14, .cls-15, .cls-16, .cls-17 {
        stroke-width: 0px;
      }

      .cls-2 {
        stroke: #eaeaea;
        stroke-width: .22px;
      }

      .cls-5 {
        fill: #f9f9f9;
      }

      .cls-6 {
        fill: #74d6fe;
      }

      .cls-7 {
        fill: #3093c2;
      }

      .cls-8 {
        fill: #39b1e5;
      }

      .cls-9 {
        fill: #1c2023;
      }

      .cls-10 {
        fill: #404447;
      }

      .cls-11 {
        fill: #23597c;
      }

      .cls-12 {
        fill: #b4e8ff;
      }

      .cls-13 {
        fill: #9be3f9;
      }

      .cls-14 {
        fill: #fff;
      }

      .cls-15 {
        fill: #eaeaea;
      }

      .cls-16 {
        fill: #f5fbfc;
      }

      .cls-17 {
        fill: #00b0f8;
      }

      .cls-3 {
        stroke: #f7f7f7;
        stroke-width: .47px;
      }
    </style>
  </defs>
  <g>
    <g>
      <path class="cls-14" d="m2.09,662V63.67h859.91v598.33s-855.9-4.59-859.91,0Z"/>
      <rect class="cls-3" x="5.56" y="64.94" width="63.36" height="597.06"/>
      <g>
        <path class="cls-15" d="m44.1,218.37h-7.68c-.47,0-.85-.38-.85-.85s.38-.85.85-.85h7.68c.47,0,.85.38.85.85s-.38.85-.85.85Z"/>
        <path class="cls-15" d="m38.08,220.61c-.22,0-.43-.08-.6-.25l-2.24-2.24c-.16-.16-.25-.37-.25-.6s.09-.44.25-.6l2.24-2.24c.33-.33.87-.33,1.2,0,.33.33.33.87,0,1.2l-1.64,1.64,1.64,1.64c.33.33.33.87,0,1.2-.17.17-.38.25-.6.25Z"/>
        <path class="cls-15" d="m39.37,225.61h-8.97c-.9,0-1.64-.73-1.64-1.64v-12.91c0-.9.73-1.64,1.64-1.64h8.97c.9,0,1.64.73,1.64,1.64v1.86c0,.47-.38.85-.85.85s-.85-.38-.85-.85v-1.8h-8.85v12.8h8.85v-1.79c0-.47.38-.85.85-.85s.85.38.85.85v1.85c0,.9-.73,1.64-1.64,1.64Z"/>
      </g>
      <g>
        <path class="cls-15" d="m43.32,437.89h-12.32c-.47,0-.85-.38-.85-.85v-10.93c0-.47.38-.85.85-.85s.85.38.85.85v10.08h10.62v-10.08c0-.47.38-.85.85-.85s.85.38.85.85v10.93c0,.47-.38.85-.85.85Z"/>
        <path class="cls-15" d="m44.76,426.96h-15.17c-.47,0-.85-.38-.85-.85s.38-.85.85-.85h15.17c.47,0,.85.38.85.85s-.38.85-.85.85Z"/>
        <path class="cls-15" d="m37.22,440c-.47,0-.85-.38-.85-.85v-2.11c0-.47.38-.85.85-.85s.85.38.85.85v2.11c0,.47-.38.85-.85.85Z"/>
        <path class="cls-15" d="m33.75,442.11c-.28,0-.55-.14-.71-.39-.25-.39-.14-.92.25-1.17l3.47-2.24c.39-.25.92-.14,1.17.25.25.39.14.92-.25,1.17l-3.47,2.24c-.14.09-.3.14-.46.14Z"/>
        <path class="cls-15" d="m40.46,442.11c-.16,0-.32-.04-.46-.14l-3.47-2.24c-.39-.25-.51-.78-.25-1.17.25-.39.78-.51,1.17-.25l3.47,2.24c.39.25.51.78.25,1.17-.16.25-.43.39-.71.39Z"/>
        <path class="cls-15" d="m36.44,435.85h-2.65c-.86,0-1.57-.7-1.57-1.57v-5.35c0-.86.7-1.57,1.57-1.57h2.65c.86,0,1.57.7,1.57,1.57v5.35c0,.86-.7,1.57-1.57,1.57Zm-2.52-1.7h2.4v-5.09h-2.4v5.09Z"/>
        <path class="cls-15" d="m40.75,429.74h-1.6c-.47,0-.85-.38-.85-.85s.38-.85.85-.85h1.6c.47,0,.85.38.85.85s-.38.85-.85.85Z"/>
        <path class="cls-15" d="m40.75,432.42h-1.6c-.47,0-.85-.38-.85-.85s.38-.85.85-.85h1.6c.47,0,.85.38.85.85s-.38.85-.85.85Z"/>
        <path class="cls-15" d="m40.75,435.11h-1.6c-.47,0-.85-.38-.85-.85s.38-.85.85-.85h1.6c.47,0,.85.38.85.85s-.38.85-.85.85Z"/>
      </g>
      <g>
        <path class="cls-15" d="m30.66,138.95c-.22,0-.44-.09-.6-.25-.19-.19-.28-.46-.24-.73l.67-4.43c.03-.18.11-.34.24-.47l8.89-8.89c1.37-1.37,3.59-1.37,4.96,0,1.37,1.37,1.37,3.59,0,4.96t0,0l-8.89,8.89c-.13.13-.29.21-.47.24l-4.43.67s-.09,0-.13,0Zm1.47-4.88l-.46,3.02,3.02-.46,8.69-8.69c.71-.71.71-1.86,0-2.56-.71-.71-1.86-.71-2.56,0l-8.69,8.69Zm11.85-5.53h0,0Z"/>
        <path class="cls-15" d="m43.3,130.06c-.22,0-.43-.08-.6-.25l-3.76-3.76c-.33-.33-.33-.87,0-1.2s.87-.33,1.2,0l3.76,3.76c.33.33.33.87,0,1.2-.17.17-.38.25-.6.25Z"/>
      </g>
      <g>
        <path class="cls-15" d="m45.44,183.05h-14.26c-.47,0-.85-.38-.85-.85s.38-.85.85-.85h14.26c.47,0,.85.38.85.85s-.38.85-.85.85Z"/>
        <path class="cls-15" d="m31.44,179.87h-.26c-.47,0-.85-.38-.85-.85s.38-.85.85-.85h.26c.47,0,.85.38.85.85s-.38.85-.85.85Z"/>
        <path class="cls-15" d="m31.44,176.77h-.26c-.47,0-.85-.38-.85-.85s.38-.85.85-.85h.26c.47,0,.85.38.85.85s-.38.85-.85.85Z"/>
        <path class="cls-15" d="m31.44,173.62h-.26c-.47,0-.85-.38-.85-.85s.38-.85.85-.85h.26c.47,0,.85.38.85.85s-.38.85-.85.85Z"/>
        <path class="cls-15" d="m31.44,170.52h-.26c-.47,0-.85-.38-.85-.85s.38-.85.85-.85h.26c.47,0,.85.38.85.85s-.38.85-.85.85Z"/>
        <path class="cls-15" d="m31.44,167.33h-.26c-.47,0-.85-.38-.85-.85s.38-.85.85-.85h.26c.47,0,.85.38.85.85s-.38.85-.85.85Z"/>
        <path class="cls-15" d="m33.8,182.22c-.47,0-.85-.38-.85-.85v-5.5c0-.47.38-.85.85-.85s.85.38.85.85v5.5c0,.47-.38.85-.85.85Z"/>
        <path class="cls-15" d="m36.44,182.22c-.47,0-.85-.38-.85-.85v-8.76c0-.47.38-.85.85-.85s.85.38.85.85v8.76c0,.47-.38.85-.85.85Z"/>
        <path class="cls-15" d="m38.95,182.22c-.47,0-.85-.38-.85-.85v-7.09c0-.47.38-.85.85-.85s.85.38.85.85v7.09c0,.47-.38.85-.85.85Z"/>
        <path class="cls-15" d="m41.56,182.22c-.47,0-.85-.38-.85-.85v-10.17c0-.47.38-.85.85-.85s.85.38.85.85v10.17c0,.47-.38.85-.85.85Z"/>
        <path class="cls-15" d="m44.11,182.22c-.47,0-.85-.38-.85-.85v-15c0-.47.38-.85.85-.85s.85.38.85.85v15c0,.47-.38.85-.85.85Z"/>
      </g>
      <g>
        <path class="cls-15" d="m36.87,398.84c-.11,0-.22-.02-.33-.07l-7.27-3.03c-.32-.13-.52-.44-.52-.78v-8.99c0-.28.14-.55.38-.71.24-.16.53-.19.8-.08l7.2,3c.43.18.64.68.46,1.11-.18.43-.68.64-1.11.46l-6.02-2.51v7.15l6.75,2.81c.43.18.64.68.46,1.11-.14.33-.45.52-.78.52Z"/>
        <path class="cls-15" d="m37.49,398.84c-.33,0-.65-.2-.78-.52-.18-.43.02-.93.46-1.11l6.75-2.81v-7.15l-6.02,2.51c-.43.18-.93-.02-1.11-.46-.18-.43.02-.93.46-1.11l7.2-3c.26-.11.56-.08.8.08s.38.42.38.71v8.99c0,.34-.21.65-.52.78l-7.27,3.03c-.11.04-.22.07-.33.07Z"/>
        <path class="cls-15" d="m44.71,386.86c-.11,0-.22-.02-.33-.07l-7.2-3.09-7.24,3.05c-.43.18-.93-.02-1.11-.45-.18-.43.02-.93.45-1.11l7.58-3.19c.21-.09.45-.09.66,0l7.53,3.23c.43.18.63.68.44,1.11-.14.32-.45.51-.78.51Z"/>
        <path class="cls-15" d="m37.18,398.98c-.47,0-.85-.38-.85-.85v-9.02c0-.47.38-.85.85-.85s.85.38.85.85v9.02c0,.47-.38.85-.85.85Z"/>
      </g>
      <g>
        <path class="cls-15" d="m31.86,355.27c-.69,0-1.37-.26-1.89-.78l-.18-.18c-1.04-1.04-1.04-2.74,0-3.79l10.49-10.49c.51-.51,1.18-.78,1.89-.78s1.39.28,1.89.78l.18.18c.51.51.78,1.18.78,1.89s-.28,1.39-.78,1.89l-10.49,10.49c-.52.52-1.21.78-1.89.78Zm10.31-14.33c-.26,0-.51.1-.69.29l-10.49,10.49c-.38.38-.38,1.01,0,1.39l.18.18c.38.38,1.01.38,1.39,0l10.49-10.49c.19-.19.29-.43.29-.69s-.1-.51-.29-.69l-.18-.18c-.19-.19-.43-.29-.69-.29Z"/>
        <path class="cls-15" d="m32.36,346.75c-2.25,0-4.09-1.83-4.09-4.09s1.83-4.09,4.09-4.09,4.09,1.83,4.09,4.09-1.83,4.09-4.09,4.09Zm0-6.48c-1.32,0-2.39,1.07-2.39,2.39s1.07,2.39,2.39,2.39,2.39-1.07,2.39-2.39-1.07-2.39-2.39-2.39Z"/>
        <path class="cls-15" d="m41.52,355.87c-2.25,0-4.09-1.83-4.09-4.09s1.83-4.09,4.09-4.09,4.09,1.83,4.09,4.09-1.83,4.09-4.09,4.09Zm0-6.48c-1.32,0-2.39,1.07-2.39,2.39s1.07,2.39,2.39,2.39,2.39-1.07,2.39-2.39-1.07-2.39-2.39-2.39Z"/>
      </g>
      <g>
        <path class="cls-15" d="m40.25,270.61h-7.39c-.89,0-1.62-.73-1.62-1.62v-8.17c0-.7.29-1.39.79-1.88l3.45-3.39c.49-.48,1.15-.75,1.84-.75h3.09c.78,0,1.46.76,1.46,1.62v12.57c0,.89-.73,1.62-1.62,1.62Zm-7.31-1.7h7.23v-12.41h-2.85c-.25,0-.48.09-.65.27l-3.45,3.39c-.18.17-.28.42-.28.67v8.09Z"/>
        <path class="cls-15" d="m37.12,261.57h-4.28c-.47,0-.85-.38-.85-.85s.38-.85.85-.85h3.43v-3.91c0-.47.38-.85.85-.85s.85.38.85.85v4.76c0,.47-.38.85-.85.85Z"/>
        <path class="cls-15" d="m32.07,266.7h-4.42c-.89,0-1.62-.73-1.62-1.62v-8.17c0-.7.29-1.39.79-1.88l3.45-3.39c.49-.49,1.15-.75,1.84-.75h3.09c.78,0,1.46.76,1.46,1.62v3.54c0,.47-.38.85-.85.85s-.85-.38-.85-.85v-3.46h-2.85c-.25,0-.48.09-.65.27l-3.45,3.39c-.18.17-.28.42-.28.67v8.09h4.34c.47,0,.85.38.85.85s-.38.85-.85.85Z"/>
        <path class="cls-15" d="m31.29,257.66h-4.28c-.47,0-.85-.38-.85-.85s.38-.85.85-.85h3.43v-3.91c0-.47.38-.85.85-.85s.85.38.85.85v4.76c0,.47-.38.85-.85.85Z"/>
      </g>
      <g>
        <path class="cls-15" d="m42.95,314.19h-11.1c-1.17,0-2.12-.95-2.12-2.12v-16.16c0-1.17.95-2.12,2.12-2.12h11.1c1.17,0,2.12.95,2.12,2.12v16.16c0,1.17-.95,2.12-2.12,2.12Zm-11.1-18.7c-.23,0-.42.19-.42.42v16.16c0,.23.19.42.42.42h11.1c.23,0,.42-.19.42-.42v-16.16c0-.23-.19-.42-.42-.42h-11.1Z"/>
        <path class="cls-15" d="m40.78,300.84h-6.69c-.92,0-1.66-.75-1.66-1.66v-1.09c0-.92.75-1.66,1.66-1.66h6.69c.92,0,1.66.75,1.66,1.66v1.09c0,.92-.75,1.66-1.66,1.66Zm-6.66-1.66h0s0,0,0,0Zm0-.03h6.66l-.03-1.06-6.66.03.03,1.02Z"/>
        <path class="cls-15" d="m34.64,306.4c-.47,0-.85-.38-.85-.85v-3.01c0-.47.38-.85.85-.85s.85.38.85.85v3.01c0,.47-.38.85-.85.85Z"/>
        <path class="cls-15" d="m36.14,304.9h-3.01c-.47,0-.85-.38-.85-.85s.38-.85.85-.85h3.01c.47,0,.85.38.85.85s-.38.85-.85.85Z"/>
        <path class="cls-15" d="m39.01,311.49c-.22,0-.43-.08-.6-.25-.33-.33-.33-.87,0-1.2l2.13-2.13c.33-.33.87-.33,1.2,0s.33.87,0,1.2l-2.13,2.13c-.17.17-.38.25-.6.25Z"/>
        <path class="cls-15" d="m39.01,306.3c-.22,0-.43-.08-.6-.25-.33-.33-.33-.87,0-1.2l2.13-2.13c.33-.33.87-.33,1.2,0s.33.87,0,1.2l-2.13,2.13c-.17.17-.38.25-.6.25Z"/>
        <path class="cls-15" d="m41.14,311.49c-.22,0-.43-.08-.6-.25l-2.13-2.13c-.33-.33-.33-.87,0-1.2.33-.33.87-.33,1.2,0l2.13,2.13c.33.33.33.87,0,1.2-.17.17-.38.25-.6.25Z"/>
        <path class="cls-15" d="m36.14,310.38h-3.01c-.47,0-.85-.38-.85-.85s.38-.85.85-.85h3.01c.47,0,.85.38.85.85s-.38.85-.85.85Z"/>
      </g>
    </g>
    <g>
      <path class="cls-4" d="m862,63.26H1.85v-31.28C1.85,16.77,14.18,4.45,29.38,4.45h832.62v58.81Z"/>
      <rect class="cls-9" x="325.43" y="21.54" width="536.57" height="25.57"/>
      <g>
        <polygon class="cls-10" points="371.45 41.67 359.93 41.67 359.93 32.38 365.69 32.38 371.45 32.38 371.45 41.67"/>
        <path class="cls-10" d="m365.69,27.73c1.35,0,2.45,1.1,2.45,2.45v3.51c0,.15-.12.27-.27.27h-4.36c-.15,0-.27-.12-.27-.27v-3.51c0-1.35,1.1-2.45,2.45-2.45m0-1.8c-2.25,0-4.07,1.82-4.07,4.07v4.46c0,.72.58,1.3,1.3,1.3h5.53c.72,0,1.3-.58,1.3-1.3v-4.46c0-2.25-1.82-4.07-4.07-4.07h0Z"/>
      </g>
      <g>
        <ellipse class="cls-9" cx="31.6" cy="31.77" rx="6.2" ry="6.18"/>
        <ellipse class="cls-9" cx="54.97" cy="31.77" rx="6.2" ry="6.18"/>
        <ellipse class="cls-9" cx="76.9" cy="31.77" rx="6.2" ry="6.18"/>
      </g>
    </g>
  </g>
  <g>
    <path class="cls-5" d="m164.13,131.62h-53.55c-2.77,0-5.01-2.24-5.01-5.01s2.24-5.01,5.01-5.01h53.55c2.77,0,5.01,2.24,5.01,5.01s-2.24,5.01-5.01,5.01Z"/>
    <path class="cls-5" d="m325.79,131.62h-40.6c-2.77,0-5.01-2.24-5.01-5.01s2.24-5.01,5.01-5.01h40.6c2.77,0,5.01,2.24,5.01,5.01s-2.24,5.01-5.01,5.01Z"/>
    <path class="cls-5" d="m514.52,131.62h-73.19c-2.77,0-5.01-2.24-5.01-5.01s2.24-5.01,5.01-5.01h73.19c2.77,0,5.01,2.24,5.01,5.01s-2.24,5.01-5.01,5.01Z"/>
    <path class="cls-5" d="m837.08,131.62h-50.42c-2.77,0-5.01-2.24-5.01-5.01s2.24-5.01,5.01-5.01h50.42c2.77,0,5.01,2.24,5.01,5.01s-2.24,5.01-5.01,5.01Z"/>
    <g>
      <path class="cls-15" d="m120.15,160.57h2.83v3.05h-2.83v5.07h-3.81v-5.07h-9.85l-.11-2.32,9.83-15.41h3.93v14.67Zm-9.77,0h5.97v-9.52l-.28.5-5.68,9.02Z"/>
      <path class="cls-15" d="m140.83,168.7h-15.33v-2.62l7.59-8.28c1.1-1.22,1.88-2.24,2.34-3.06.46-.82.7-1.64.7-2.47,0-1.09-.31-1.96-.92-2.63-.61-.67-1.43-1-2.47-1-1.23,0-2.19.38-2.87,1.13s-1.02,1.78-1.02,3.08h-3.81c0-1.39.32-2.64.95-3.75.63-1.11,1.53-1.98,2.71-2.59,1.17-.62,2.53-.92,4.06-.92,2.21,0,3.96.56,5.24,1.67s1.92,2.65,1.92,4.61c0,1.14-.32,2.33-.96,3.58-.64,1.25-1.69,2.67-3.16,4.25l-5.57,5.97h10.59v3.04Z"/>
      <path class="cls-15" d="m158.59,159.1c0,3.28-.61,5.75-1.84,7.41-1.23,1.67-3.09,2.5-5.6,2.5s-4.32-.81-5.57-2.44c-1.25-1.62-1.89-4.03-1.92-7.21v-3.95c0-3.28.61-5.74,1.84-7.38,1.23-1.64,3.1-2.46,5.61-2.46s4.36.8,5.58,2.4c1.23,1.6,1.86,3.99,1.89,7.17v3.95Zm-3.81-4.26c0-2.14-.29-3.71-.88-4.71s-1.51-1.5-2.79-1.5-2.16.47-2.74,1.42c-.58.95-.89,2.42-.92,4.42v5.17c0,2.13.3,3.72.89,4.76.6,1.04,1.53,1.57,2.8,1.57s2.12-.48,2.71-1.45c.58-.97.89-2.48.92-4.53v-5.15Z"/>
    </g>
    <g>
      <path class="cls-15" d="m286.28,155.56h2.32c1.17-.01,2.1-.31,2.78-.91s1.03-1.46,1.03-2.58-.28-1.93-.85-2.53c-.57-.6-1.44-.9-2.61-.9-1.02,0-1.86.29-2.52.88s-.99,1.36-.99,2.31h-3.81c0-1.17.31-2.23.93-3.19.62-.96,1.49-1.71,2.6-2.25s2.36-.81,3.73-.81c2.28,0,4.06.57,5.36,1.71s1.95,2.73,1.95,4.77c0,1.02-.33,1.99-.98,2.89-.65.9-1.5,1.58-2.53,2.04,1.25.43,2.21,1.1,2.86,2.02.65.92.98,2.01.98,3.29,0,2.05-.7,3.67-2.11,4.89-1.4,1.21-3.25,1.82-5.54,1.82s-3.99-.58-5.39-1.75c-1.4-1.17-2.1-2.73-2.1-4.67h3.81c0,1,.34,1.82,1.01,2.44.67.63,1.58.94,2.72.94s2.11-.31,2.79-.94c.68-.63,1.02-1.53,1.02-2.73s-.35-2.12-1.06-2.77c-.71-.65-1.76-.97-3.16-.97h-2.24v-3.01Z"/>
      <path class="cls-15" d="m314.47,151.91c0,1.12-.29,2.11-.86,2.98s-1.36,1.56-2.35,2.06c1.19.55,2.11,1.31,2.75,2.27.64.96.96,2.05.96,3.26,0,2-.68,3.59-2.04,4.77-1.36,1.17-3.16,1.76-5.42,1.76s-4.08-.59-5.44-1.77c-1.36-1.18-2.04-2.77-2.04-4.76,0-1.22.32-2.32.97-3.29.65-.97,1.56-1.72,2.72-2.24-.98-.5-1.76-1.19-2.33-2.06-.57-.87-.85-1.87-.85-2.98,0-1.94.63-3.48,1.88-4.62s2.94-1.71,5.07-1.71,3.84.57,5.09,1.71c1.25,1.14,1.88,2.68,1.88,4.62Zm-3.3,10.38c0-1.13-.34-2.04-1.01-2.73s-1.56-1.04-2.67-1.04-1.99.34-2.65,1.03c-.66.69-.99,1.6-.99,2.74s.33,2.01.98,2.68c.65.67,1.55,1,2.7,1s2.04-.32,2.69-.97c.64-.65.96-1.55.96-2.71Zm-.49-10.24c0-.99-.29-1.81-.86-2.45s-1.35-.96-2.32-.96-1.74.31-2.3.92c-.56.61-.85,1.44-.85,2.5s.28,1.87.85,2.49c.57.62,1.34.92,2.31.92s1.74-.31,2.31-.92c.57-.62.85-1.45.85-2.49Z"/>
      <path class="cls-15" d="m333.2,159.1c0,3.28-.61,5.75-1.84,7.41-1.23,1.67-3.09,2.5-5.6,2.5s-4.32-.81-5.57-2.44c-1.25-1.62-1.89-4.03-1.92-7.21v-3.95c0-3.28.61-5.74,1.84-7.38,1.23-1.64,3.1-2.46,5.61-2.46s4.36.8,5.58,2.4c1.23,1.6,1.86,3.99,1.89,7.17v3.95Zm-3.81-4.26c0-2.14-.29-3.71-.88-4.71s-1.51-1.5-2.79-1.5-2.16.47-2.74,1.42c-.58.95-.89,2.42-.92,4.42v5.17c0,2.13.3,3.72.89,4.76.6,1.04,1.53,1.57,2.8,1.57s2.12-.48,2.71-1.45c.58-.97.89-2.48.92-4.53v-5.15Z"/>
    </g>
    <g>
      <path class="cls-15" d="m794.32,159.93h-4.42v8.77h-3.96v-22.8h8.02c2.63,0,4.66.59,6.09,1.77,1.43,1.18,2.15,2.89,2.15,5.12,0,1.53-.37,2.8-1.1,3.83-.74,1.03-1.76,1.82-3.08,2.37l5.12,9.49v.2h-4.24l-4.57-8.77Zm-4.42-3.19h4.07c1.34,0,2.38-.34,3.13-1.01.75-.67,1.13-1.59,1.13-2.76s-.35-2.17-1.04-2.83-1.73-1.01-3.11-1.03h-4.18v7.64Z"/>
      <path class="cls-15" d="m816.46,162.75c0-.89-.28-1.62-.85-2.2-.56-.58-1.5-1.1-2.82-1.57-1.32-.46-2.34-.9-3.07-1.29-2.43-1.31-3.65-3.24-3.65-5.79,0-1.73.53-3.16,1.58-4.28,1.05-1.12,2.48-1.78,4.29-1.99v-3.41h2.5v3.45c1.82.26,3.22,1.03,4.21,2.31.99,1.28,1.49,2.94,1.49,4.99h-3.79c0-1.32-.3-2.35-.88-3.11-.59-.76-1.39-1.14-2.4-1.14s-1.79.27-2.35.81c-.56.54-.85,1.32-.85,2.33,0,.91.28,1.64.84,2.18.56.55,1.51,1.07,2.84,1.56,1.34.49,2.39.94,3.15,1.36.76.42,1.4.9,1.93,1.43.52.54.92,1.16,1.21,1.86.28.7.42,1.52.42,2.46,0,1.76-.54,3.19-1.62,4.29-1.08,1.1-2.59,1.74-4.52,1.94v3.05h-2.49v-3.04c-2.07-.23-3.66-.97-4.77-2.22-1.11-1.25-1.67-2.91-1.67-4.98h3.8c0,1.32.33,2.33.99,3.05.66.72,1.6,1.08,2.81,1.08s2.1-.29,2.72-.86.93-1.34.93-2.29Z"/>
      <path class="cls-15" d="m835.96,155.56h2.32c1.17-.01,2.1-.31,2.78-.91s1.03-1.46,1.03-2.58-.28-1.93-.85-2.53c-.57-.6-1.44-.9-2.61-.9-1.02,0-1.86.29-2.52.88-.66.59-.99,1.36-.99,2.31h-3.81c0-1.17.31-2.23.93-3.19s1.49-1.71,2.6-2.25c1.11-.54,2.36-.81,3.74-.81,2.28,0,4.06.57,5.36,1.71s1.95,2.73,1.95,4.77c0,1.02-.33,1.99-.98,2.89-.65.9-1.5,1.58-2.53,2.04,1.25.43,2.21,1.1,2.86,2.02.65.92.98,2.01.98,3.29,0,2.05-.7,3.67-2.11,4.89-1.4,1.21-3.25,1.82-5.54,1.82s-3.99-.58-5.39-1.75c-1.4-1.17-2.1-2.73-2.1-4.67h3.8c0,1,.34,1.82,1.01,2.44.67.63,1.58.94,2.72.94s2.11-.31,2.79-.94c.68-.63,1.02-1.53,1.02-2.73s-.35-2.12-1.06-2.77-1.76-.97-3.16-.97h-2.24v-3.01Z"/>
      <path class="cls-15" d="m852.4,164.69c.71,0,1.26.2,1.64.6.39.4.58.91.58,1.51s-.19,1.09-.58,1.48c-.39.39-.93.59-1.64.59s-1.22-.19-1.61-.58-.59-.88-.59-1.49.19-1.11.58-1.51c.39-.4.93-.6,1.63-.6Z"/>
    </g>
    <g>
      <path class="cls-15" d="m447.23,159.93h-4.42v8.77h-3.96v-22.8h8.02c2.63,0,4.66.59,6.09,1.77,1.43,1.18,2.15,2.89,2.15,5.12,0,1.53-.37,2.8-1.1,3.83-.74,1.03-1.76,1.82-3.08,2.37l5.12,9.49v.2h-4.24l-4.57-8.77Zm-4.42-3.19h4.07c1.34,0,2.38-.34,3.13-1.01.75-.67,1.13-1.59,1.13-2.76s-.35-2.17-1.04-2.83-1.73-1.01-3.11-1.03h-4.18v7.64Z"/>
      <path class="cls-15" d="m469.37,162.75c0-.89-.28-1.62-.85-2.2-.56-.58-1.5-1.1-2.82-1.57-1.32-.46-2.34-.9-3.07-1.29-2.43-1.31-3.65-3.24-3.65-5.79,0-1.73.53-3.16,1.58-4.28,1.05-1.12,2.48-1.78,4.29-1.99v-3.41h2.5v3.45c1.82.26,3.22,1.03,4.21,2.31.99,1.28,1.49,2.94,1.49,4.99h-3.79c0-1.32-.3-2.35-.88-3.11-.59-.76-1.39-1.14-2.4-1.14s-1.79.27-2.35.81c-.56.54-.85,1.32-.85,2.33,0,.91.28,1.64.84,2.18.56.55,1.51,1.07,2.84,1.56,1.34.49,2.39.94,3.15,1.36.76.42,1.4.9,1.93,1.43.52.54.92,1.16,1.21,1.86.28.7.42,1.52.42,2.46,0,1.76-.54,3.19-1.62,4.29-1.08,1.1-2.59,1.74-4.52,1.94v3.05h-2.49v-3.04c-2.07-.23-3.66-.97-4.77-2.22-1.11-1.25-1.67-2.91-1.67-4.98h3.8c0,1.32.33,2.33.99,3.05.66.72,1.6,1.08,2.81,1.08s2.1-.29,2.72-.86.93-1.34.93-2.29Z"/>
      <path class="cls-15" d="m494.77,168.7h-3.79v-18.32l-5.59,1.91v-3.19l8.89-3.27h.49v22.88Z"/>
      <path class="cls-15" d="m505.31,164.69c.71,0,1.26.2,1.64.6.39.4.58.91.58,1.51s-.19,1.09-.58,1.48c-.39.39-.93.59-1.64.59s-1.22-.19-1.61-.58-.59-.88-.59-1.49.19-1.11.58-1.51c.39-.4.93-.6,1.63-.6Z"/>
      <path class="cls-15" d="m526.98,168.7h-15.33v-2.62l7.59-8.28c1.1-1.22,1.88-2.24,2.34-3.06.46-.82.7-1.64.7-2.47,0-1.09-.31-1.96-.92-2.63-.61-.67-1.43-1-2.47-1-1.23,0-2.19.38-2.87,1.13-.68.75-1.02,1.78-1.02,3.08h-3.8c0-1.39.32-2.64.95-3.75s1.53-1.98,2.71-2.59c1.17-.62,2.53-.92,4.06-.92,2.21,0,3.96.56,5.24,1.67,1.28,1.11,1.92,2.65,1.92,4.61,0,1.14-.32,2.33-.96,3.58-.64,1.25-1.69,2.67-3.16,4.25l-5.58,5.97h10.59v3.04Z"/>
      <path class="cls-15" d="m530.89,157.39l1.24-11.49h12.25v3.29h-9.08l-.63,5.45c1.05-.61,2.24-.91,3.57-.91,2.17,0,3.86.69,5.07,2.08,1.21,1.39,1.81,3.26,1.81,5.61s-.67,4.16-2,5.54c-1.34,1.37-3.17,2.06-5.5,2.06-2.09,0-3.82-.59-5.19-1.78-1.37-1.18-2.12-2.75-2.23-4.69h3.68c.15,1.11.54,1.96,1.19,2.54.65.59,1.49.88,2.54.88,1.17,0,2.08-.42,2.73-1.25.65-.83.98-1.97.98-3.41s-.36-2.49-1.08-3.3-1.71-1.21-2.98-1.21c-.69,0-1.27.09-1.75.27-.48.18-1,.54-1.57,1.07l-3.04-.75Z"/>
      <path class="cls-15" d="m549.12,157.39l1.24-11.49h12.25v3.29h-9.08l-.63,5.45c1.05-.61,2.24-.91,3.57-.91,2.17,0,3.86.69,5.07,2.08,1.21,1.39,1.81,3.26,1.81,5.61s-.67,4.16-2,5.54c-1.34,1.37-3.17,2.06-5.5,2.06-2.09,0-3.82-.59-5.19-1.78-1.37-1.18-2.12-2.75-2.23-4.69h3.68c.15,1.11.54,1.96,1.19,2.54.65.59,1.49.88,2.54.88,1.17,0,2.08-.42,2.73-1.25.65-.83.98-1.97.98-3.41s-.36-2.49-1.08-3.3-1.71-1.21-2.98-1.21c-.69,0-1.27.09-1.75.27-.48.18-1,.54-1.57,1.07l-3.04-.75Z"/>
      <path class="cls-15" d="m567.12,173.83l-2.05-1.22c.61-.95,1.02-1.78,1.25-2.48.22-.7.34-1.42.35-2.15v-2.96h3.43l-.02,2.74c-.01,1.11-.29,2.22-.84,3.33-.55,1.11-1.25,2.03-2.12,2.75Z"/>
      <path class="cls-15" d="m588.24,159.1c0,3.28-.61,5.75-1.84,7.41-1.23,1.67-3.09,2.5-5.6,2.5s-4.32-.81-5.57-2.44c-1.25-1.62-1.89-4.03-1.92-7.21v-3.95c0-3.28.61-5.74,1.84-7.38,1.23-1.64,3.1-2.46,5.61-2.46s4.36.8,5.58,2.4,1.86,3.99,1.89,7.17v3.95Zm-3.8-4.26c0-2.14-.29-3.71-.88-4.71-.58-1-1.51-1.5-2.79-1.5s-2.16.47-2.74,1.42c-.58.95-.89,2.42-.92,4.42v5.17c0,2.13.3,3.72.89,4.76.6,1.04,1.53,1.57,2.8,1.57s2.12-.48,2.71-1.45c.58-.97.89-2.48.92-4.53v-5.15Z"/>
      <path class="cls-15" d="m606.47,159.1c0,3.28-.61,5.75-1.84,7.41-1.23,1.67-3.09,2.5-5.6,2.5s-4.32-.81-5.57-2.44c-1.25-1.62-1.89-4.03-1.92-7.21v-3.95c0-3.28.61-5.74,1.84-7.38,1.23-1.64,3.1-2.46,5.61-2.46s4.36.8,5.58,2.4,1.86,3.99,1.89,7.17v3.95Zm-3.8-4.26c0-2.14-.29-3.71-.88-4.71-.58-1-1.51-1.5-2.79-1.5s-2.16.47-2.74,1.42c-.58.95-.89,2.42-.92,4.42v5.17c0,2.13.3,3.72.89,4.76.6,1.04,1.53,1.57,2.8,1.57s2.12-.48,2.71-1.45c.58-.97.89-2.48.92-4.53v-5.15Z"/>
    </g>
    <g>
      <line class="cls-2" x1="123.81" y1="564.02" x2="385.97" y2="564.02"/>
      <line class="cls-2" x1="123.81" y1="592.05" x2="385.97" y2="592.05"/>
      <line class="cls-2" x1="123.81" y1="620.07" x2="385.97" y2="620.07"/>
      <line class="cls-2" x1="123.81" y1="648.1" x2="385.97" y2="648.1"/>
      <g>
        <line class="cls-2" x1="123.81" y1="536" x2="385.97" y2="536"/>
        <line class="cls-2" x1="123.81" y1="521.87" x2="385.97" y2="521.87"/>
        <line class="cls-2" x1="123.81" y1="549.9" x2="385.97" y2="549.9"/>
      </g>
      <g>
        <line class="cls-2" x1="123.81" y1="507.93" x2="385.97" y2="507.93"/>
        <line class="cls-2" x1="123.81" y1="493.81" x2="385.97" y2="493.81"/>
      </g>
      <line class="cls-2" x1="123.81" y1="577.92" x2="385.97" y2="577.92"/>
      <line class="cls-2" x1="123.81" y1="605.95" x2="385.97" y2="605.95"/>
      <line class="cls-2" x1="123.81" y1="633.97" x2="385.97" y2="633.97"/>
    </g>
    <rect class="cls-17" x="144.76" y="493.79" width="43.7" height="168.21"/>
    <rect class="cls-7" x="192.38" y="654.55" width="43.7" height="7.45"/>
    <rect class="cls-17" x="261.33" y="605.92" width="43.7" height="56.08"/>
    <rect class="cls-7" x="308.97" y="654.55" width="43.7" height="7.45"/>
    <g>
      <line class="cls-2" x1="490.58" y1="562.15" x2="752.74" y2="562.15"/>
      <line class="cls-2" x1="490.58" y1="590.15" x2="752.74" y2="590.15"/>
      <line class="cls-2" x1="490.58" y1="618.15" x2="752.74" y2="618.15"/>
      <line class="cls-2" x1="490.58" y1="646.15" x2="752.74" y2="646.15"/>
      <g>
        <line class="cls-2" x1="490.58" y1="534.15" x2="752.74" y2="534.15"/>
        <line class="cls-2" x1="490.58" y1="520.04" x2="752.74" y2="520.04"/>
        <line class="cls-2" x1="490.58" y1="548.04" x2="752.74" y2="548.04"/>
      </g>
      <g>
        <line class="cls-2" x1="490.58" y1="506.11" x2="752.74" y2="506.11"/>
        <line class="cls-2" x1="490.58" y1="492" x2="752.74" y2="492"/>
      </g>
      <line class="cls-2" x1="490.58" y1="576.04" x2="752.74" y2="576.04"/>
      <line class="cls-2" x1="490.58" y1="604.04" x2="752.74" y2="604.04"/>
      <line class="cls-2" x1="490.58" y1="632.04" x2="752.74" y2="632.04"/>
      <line class="cls-2" x1="490.58" y1="660.04" x2="752.74" y2="660.04"/>
    </g>
    <rect class="cls-17" x="511.53" y="491.17" width="43.7" height="170.68"/>
    <rect class="cls-7" x="559.14" y="620.71" width="43.7" height="41.15"/>
    <rect class="cls-17" x="632.08" y="605.82" width="43.7" height="56.04"/>
    <rect class="cls-7" x="675.73" y="654.41" width="43.7" height="7.44"/>
    <g>
      <g>
        <g>
          <path class="cls-7" d="m256.92,306.44l-30,46.46,50.72-22.74c-4.48-9.77-11.72-18-20.72-23.72Z"/>
          <path class="cls-7" d="m256.92,306.44c-8.58-5.45-18.75-8.62-29.66-8.62-.11,0-.23,0-.34,0v55.07l30-46.46Z"/>
        </g>
        <g>
          <path class="cls-17" d="m226.91,352.89v-55.07c-30.45.18-55.08,24.92-55.08,55.41s24.81,55.42,55.42,55.42,55.42-24.81,55.42-55.42c0-8.24-1.81-16.05-5.04-23.08l-50.72,22.74Z"/>
          <circle class="cls-14" cx="227.18" cy="352.67" r="22.85"/>
        </g>
      </g>
      <g>
        <path class="cls-5" d="m342.49,407.47h-40.6c-2.77,0-5.01-2.24-5.01-5.01s2.24-5.01,5.01-5.01h40.6c2.77,0,5.01,2.24,5.01,5.01s-2.24,5.01-5.01,5.01Z"/>
        <g>
          <path class="cls-1" d="m100.72,264.75h266.05v162.77c0,2.75-2.23,4.98-4.98,4.98H105.7c-2.75,0-4.98-2.23-4.98-4.98v-162.77h0Z"/>
          <path class="cls-16" d="m366.71,239.14c-.23-.42-.57-.76-.99-.99-.35-.19-.75-.3-1.17-.3H102.72c-.17,0-.33.02-.49.05-.32.07-.62.19-.88.37-.13.09-.25.19-.36.3-.11.11-.21.23-.3.36-.09.13-.16.27-.23.42-.12.29-.19.62-.19.95v32.72h266.74v-10.71s0-22.01,0-22.01c0-.42-.11-.82-.3-1.17Z"/>
        </g>
      </g>
    </g>
    <g>
      <path class="cls-5" d="m688.6,407.47h-40.6c-2.77,0-5.01-2.24-5.01-5.01s2.24-5.01,5.01-5.01h40.6c2.77,0,5.01,2.24,5.01,5.01s-2.24,5.01-5.01,5.01Z"/>
      <g>
        <path class="cls-7" d="m557.9,406.58c9.78,2.75,20.44,2.86,30.89-.29.11-.03.21-.07.32-.11l-15.86-52.74-15.36,53.13Z"/>
        <g>
          <g>
            <path class="cls-7" d="m602.5,306.43l-30,46.46,50.72-22.74c-4.48-9.77-11.72-18-20.72-23.72Z"/>
            <path class="cls-8" d="m602.5,306.43c-8.58-5.45-18.75-8.62-29.66-8.62-.11,0-.23,0-.34,0v55.07l30-46.46Z"/>
          </g>
          <g>
            <path class="cls-7" d="m572.5,352.89v-55.07c-30.45.18-55.08,24.92-55.08,55.41s24.81,55.42,55.42,55.42,55.42-24.81,55.42-55.42c0-8.24-1.81-16.05-5.04-23.08l-50.72,22.74Z"/>
            <g>
              <path class="cls-8" d="m542.54,306.84l29.85,46.56.32-55.58c-10.75.03-21.24,3.2-30.17,9.03Z"/>
              <path class="cls-8" d="m542.54,306.84c-8.51,5.55-15.61,13.49-20.14,23.43-.05.1-.09.21-.13.31l50.12,22.82-29.85-46.56Z"/>
            </g>
            <g>
              <path class="cls-13" d="m518.09,361.74l54.72-8.04-50.52-23.18c-4.4,9.81-5.83,20.68-4.2,31.21Z"/>
              <path class="cls-13" d="m518.09,361.74c1.55,10.04,5.87,19.78,13.06,27.99.08.09.15.16.23.25l41.43-36.28-54.72,8.04Z"/>
            </g>
            <path class="cls-17" d="m557.9,406.58l15.36-53.13-42.03,36.38c7.11,8.06,16.4,13.87,26.67,16.75Z"/>
            <circle class="cls-14" cx="572.76" cy="352.66" r="22.85"/>
          </g>
        </g>
      </g>
      <g>
        <path class="cls-1" d="m440.35,264.75h266.05v162.77c0,2.75-2.23,4.98-4.98,4.98h-256.08c-2.75,0-4.98-2.23-4.98-4.98v-162.77h0Z"/>
        <path class="cls-16" d="m706.34,239.14c-.23-.42-.57-.76-.99-.99-.35-.19-.75-.3-1.17-.3h-261.83c-.17,0-.33.02-.49.05-.32.07-.62.19-.88.37-.13.09-.25.19-.36.3-.11.11-.21.23-.3.36-.09.13-.16.27-.23.42-.12.29-.19.62-.19.95v32.72h266.74v-10.71s0-22.01,0-22.01c0-.42-.11-.82-.3-1.17Z"/>
      </g>
    </g>
    <rect class="cls-6" x="823.32" y="571.83" width="6.6" height="6.6"/>
    <rect class="cls-7" x="823.32" y="590.59" width="6.6" height="6.6"/>
    <rect class="cls-11" x="823.32" y="617.04" width="6.6" height="6.6"/>
    <rect class="cls-12" x="823.32" y="635.79" width="6.6" height="6.6"/>
    <path class="cls-5" d="m151.09,472.16h-31.54c-2.51,0-4.54-2.03-4.54-4.54s2.03-4.54,4.54-4.54h31.54c2.51,0,4.54,2.03,4.54,4.54s-2.03,4.54-4.54,4.54Z"/>
    <path class="cls-5" d="m556.1,472.16h-64.01c-2.51,0-4.54-2.03-4.54-4.54s2.03-4.54,4.54-4.54h64.01c2.51,0,4.54,2.03,4.54,4.54s-2.03,4.54-4.54,4.54Z"/>
  </g>
  <path class="cls-13" d="m862,479.5h-47.86c-2.73,0-4.94,2.21-4.94,4.94v13.36c0,2.73,2.21,4.94,4.94,4.94h47.86v-23.25Z"/>
  <path class="cls-5" d="m862,569.22h-18.17c-2.58,0-4.68,2.09-4.68,4.68s2.09,4.68,4.68,4.68h18.17v-9.35Z"/>
  <path class="cls-5" d="m862,590.26h-18.17c-2.58,0-4.68,2.09-4.68,4.68h0c0,2.58,2.09,4.68,4.68,4.68h18.17v-9.35Z"/>
  <path class="cls-5" d="m862,614.42h-18.17c-2.58,0-4.68,2.09-4.68,4.68s2.09,4.68,4.68,4.68h18.17v-9.35Z"/>
  <path class="cls-5" d="m862,635.47h-18.17c-2.58,0-4.68,2.09-4.68,4.68s2.09,4.68,4.68,4.68h18.17v-9.35Z"/>
  <path class="cls-16" d="m862,237.86h-80.03c-.17,0-.33.02-.49.05-.32.07-.62.19-.88.37-.13.09-.25.19-.36.3s-.21.23-.3.36c-.09.13-.16.27-.23.42-.12.29-.19.62-.19.95v32.72h82.48v-35.18Z"/>
  <path class="cls-1" d="m862,264.75h-82.02v162.77c0,2.75,2.23,4.98,4.98,4.98h77.04v-167.76Z"/>
</svg>