<?xml version="1.0" standalone="no"?>
<!DOCTYPE svg PUBLIC "-//W3C//DTD SVG 20010904//EN"
 "http://www.w3.org/TR/2001/REC-SVG-20010904/DTD/svg10.dtd">
<svg version="1.0" xmlns="http://www.w3.org/2000/svg"
 width="225.000000pt" height="225.000000pt" viewBox="0 0 225.000000 225.000000"
 preserveAspectRatio="xMidYMid meet">
<metadata>
Created by potrace 1.14, written by Peter Selinger 2001-2017
</metadata>
<g transform="translate(0.000000,225.000000) scale(0.100000,-0.100000)"
fill="#000000" stroke="none">
<path d="M254 2241 c-95 -23 -186 -99 -227 -189 l-22 -47 0 -895 0 -895 27
-51 c31 -59 84 -108 147 -138 46 -21 52 -21 951 -21 l905 0 51 27 c59 31 108
84 138 147 21 46 21 52 21 946 0 894 0 900 -21 946 -31 66 -78 114 -142 146
l-57 28 -870 2 c-478 0 -884 -2 -901 -6z m1059 -556 c125 -26 221 -91 287
-195 30 -48 65 -128 58 -135 -4 -4 -272 -65 -288 -65 -5 0 -18 17 -29 39 -73
142 -275 149 -357 13 -37 -61 -44 -95 -44 -226 0 -215 64 -306 217 -306 96 0
163 55 198 161 9 27 20 49 23 49 26 2 292 -87 292 -97 0 -27 -45 -131 -78
-181 -92 -141 -244 -201 -477 -189 -217 11 -333 73 -437 231 -54 84 -78 169
-85 301 -16 325 127 541 398 600 84 18 237 18 322 0z"/>
</g>
</svg>
